<?xml version="1.0" standalone="no"?>
<!DOCTYPE svg PUBLIC "-//W3C//DTD SVG 20010904//EN"
  "http://www.w3.org/TR/2001/REC-SVG-20010904/DTD/svg10.dtd">
<svg version="1.0" xmlns="http://www.w3.org/2000/svg"
     width="256.000000pt" height="360.000000pt" viewBox="0 0 256.000000 360.000000"
     preserveAspectRatio="xMidYMid meet">

  <g transform="translate(0.000000,360.000000) scale(0.100000,-0.100000)"
     fill="#e5c973" stroke="none">
    <path d="M1090 3396 c-338 -71 -603 -292 -729 -607 -41 -105 -61 -211 -68
-365 l-6 -132 -32 -6 c-57 -11 -120 -60 -146 -112 l-24 -49 0 -835 0 -835 22
-40 c24 -46 54 -75 103 -101 34 -18 79 -19 1070 -19 l1035 0 42 22 c52 28 98
83 112 137 9 29 11 270 9 861 l-3 820 -28 47 c-32 55 -86 96 -138 104 l-36 6
-6 142 c-11 276 -92 481 -264 667 -117 125 -302 237 -468 280 -103 27 -347 35
-445 15z m325 -458 c116 -25 237 -111 309 -220 60 -91 79 -156 84 -300 l4
-128 -532 0 -533 0 5 128 c4 99 10 140 28 187 100 264 351 395 635 333z"/>
  </g>
</svg>
