<?xml version="1.0" standalone="no"?>
<!DOCTYPE svg PUBLIC "-//W3C//DTD SVG 20010904//EN"
 "http://www.w3.org/TR/2001/REC-SVG-20010904/DTD/svg10.dtd">
<svg version="1.0" xmlns="http://www.w3.org/2000/svg"
 width="264.000000pt" height="360.000000pt" viewBox="0 0 264.000000 360.000000"
 preserveAspectRatio="xMidYMid meet">

<g transform="translate(0.000000,360.000000) scale(0.100000,-0.100000)"
fill="#aed581" stroke="none">
<path d="M1115 3400 c-324 -51 -596 -256 -736 -555 -55 -117 -79 -224 -86
-391 l-6 -142 -37 -11 c-51 -15 -124 -82 -146 -133 -18 -41 -19 -88 -22 -848
-2 -556 0 -821 8 -856 13 -62 59 -120 114 -145 39 -18 92 -19 1104 -19 937 0
1067 2 1100 15 47 20 79 50 103 97 18 36 19 71 19 893 0 827 -1 857 -19 894
-29 56 -81 97 -141 110 -34 7 -293 11 -800 11 l-750 0 0 103 c0 163 34 251
135 346 72 68 159 108 262 121 175 22 326 -25 449 -141 81 -77 116 -89 273
-89 126 0 137 2 178 25 54 32 83 86 83 155 0 58 -15 91 -76 172 -139 180 -331
307 -550 364 -79 21 -129 26 -249 29 -82 2 -177 0 -210 -5z"/>
</g>
</svg>
